<svg id="圖層_5_拷貝_2" data-name="圖層 5 拷貝 2" xmlns="http://www.w3.org/2000/svg" viewBox="0 0 249.45 249.45"><defs><style>.cls-1{fill:#222;}.cls-10,.cls-12,.cls-2,.cls-3,.cls-4,.cls-5,.cls-6,.cls-7,.cls-8{fill:none;}.cls-2,.cls-3,.cls-5{stroke:#7ecdeb;}.cls-10,.cls-11,.cls-2,.cls-6,.cls-8{stroke-linecap:round;}.cls-10,.cls-11,.cls-12,.cls-2,.cls-3,.cls-4,.cls-5,.cls-6,.cls-7,.cls-8{stroke-miterlimit:10;}.cls-10,.cls-2,.cls-3,.cls-6,.cls-7,.cls-8{stroke-width:7px;}.cls-4,.cls-6{stroke:#7dc4e0;}.cls-4,.cls-5{stroke-width:5px;}.cls-7,.cls-8{stroke:#e48985;}.cls-9{fill:#e48985;}.cls-10{stroke:#f8d680;}.cls-11{fill:#231815;}.cls-11,.cls-12{stroke:#7fbd80;stroke-width:6px;}.cls-13{font-size:40px;fill:#fff;font-family:Calibri-Bold, Calibri;font-weight:700;}.cls-14{letter-spacing:-0.01em;}.cls-15{letter-spacing:-0.01em;}</style></defs><rect class="cls-1" width="249.45" height="249.45" rx="51.02"/><path class="cls-2" d="M378.64,302.24l.08-42h-4a2.94,2.94,0,0,1-1.91-5.18l31.92-27.37a2.94,2.94,0,0,1,3.82,0l31.93,27.37a3,3,0,0,1-1.92,5.18h-4.37v42" transform="translate(-241.71 -120.07)"/><rect class="cls-3" x="153.41" y="144.33" width="23.25" height="20.76" rx="2.83"/><line class="cls-4" x1="164.97" y1="144.33" x2="165.03" y2="165.08"/><line class="cls-5" x1="153.41" y1="154.71" x2="176.84" y2="154.71"/><path class="cls-3" d="M420.57,209l-11.65-5.66a1.58,1.58,0,0,0-2.27,1.43v11.32a1.58,1.58,0,0,0,2.27,1.43l11.65-5.67A1.58,1.58,0,0,0,420.57,209Z" transform="translate(-241.71 -120.07)"/><path class="cls-6" d="M406.65,213.7v11.23" transform="translate(-241.71 -120.07)"/><rect class="cls-7" x="153.06" y="25.66" width="23.25" height="26.33" rx="2.83"/><path class="cls-8" d="M376.63,226.89V170.16a6,6,0,0,1,5.95-5.95h7.52" transform="translate(-241.71 -120.07)"/><path class="cls-8" d="M422.21,164.21H430a6,6,0,0,1,6,5.95v56.73" transform="translate(-241.71 -120.07)"/><path class="cls-9" d="M411.27,157.72v2.33h-9.75v-2.33Zm-3.65,6.05h-2.45V154h2.45Z" transform="translate(-241.71 -120.07)"/><path class="cls-10" d="M294.76,232l-.61-63.11s0-5,6.65-6.34,44.63-11.28,44.63-11.28,6.64-2.35,6.77,4.35,0,71.29,0,71.29" transform="translate(-241.71 -120.07)"/><line class="cls-10" x1="69.01" y1="59.81" x2="69.01" y2="92.49"/><line class="cls-10" x1="83.43" y1="51.22" x2="83.43" y2="83.89"/><line class="cls-11" x1="52.45" y1="182.17" x2="110.56" y2="182.17"/><line class="cls-11" x1="58.12" y1="146.67" x2="58.12" y2="181.1"/><line class="cls-11" x1="104.9" y1="146.67" x2="104.9" y2="181.1"/><rect class="cls-12" x="53.4" y="129.75" width="56.21" height="16.8" rx="2.83"/><line class="cls-12" x1="95.27" y1="129.75" x2="95.27" y2="146.17"/><line class="cls-12" x1="81.51" y1="129.75" x2="81.51" y2="146.17"/><line class="cls-12" x1="67.74" y1="129.95" x2="67.74" y2="146.36"/><path class="cls-12" d="M310.31,302V285.65a7.11,7.11,0,0,1,7.28-6.87h0a7.11,7.11,0,0,1,7.29,6.87V302" transform="translate(-241.71 -120.07)"/><text class="cls-13" transform="translate(50.35 225.16) scale(0.94 1)">i <tspan class="cls-14" x="18.87" y="0">w</tspan><tspan x="48.24" y="0">a</tspan><tspan class="cls-15" x="67.99" y="0">n</tspan><tspan x="89.08" y="0">t fun</tspan></text></svg>