<svg xmlns="http://www.w3.org/2000/svg" viewBox="0 0 249.45 249.45"><defs><style>.cls-1{fill:#323333;}.cls-2,.cls-3,.cls-5,.cls-7{fill:none;}.cls-2,.cls-3,.cls-4,.cls-5,.cls-6,.cls-7{stroke:#fff;stroke-miterlimit:10;}.cls-2,.cls-3{stroke-width:7px;}.cls-3,.cls-6{stroke-linecap:round;}.cls-4{fill:#fff;}.cls-5{stroke-width:5px;}.cls-6{fill:#231815;}.cls-6,.cls-7{stroke-width:6px;}</style></defs><g id="圖層_2" data-name="圖層 2"><g id="圖層_5" data-name="圖層 5"><rect class="cls-1" width="249.45" height="249.45" rx="53.86"/><rect class="cls-2" x="153.97" y="31.89" width="26.58" height="30.11" rx="2.83"/><path class="cls-3" d="M135.52,124.7V59.83a6.82,6.82,0,0,1,6.8-6.81h8.59"/><path class="cls-3" d="M183.06,53h8.86a6.83,6.83,0,0,1,6.81,6.81V124.7"/><path class="cls-4" d="M172.84,45.61v2.66H161.69V45.61Zm-4.18,6.91h-2.8V41.36h2.8Z"/><path class="cls-3" d="M135.53,212.19l.09-48h-4.53a3.37,3.37,0,0,1-2.19-5.92L165.4,127a3.37,3.37,0,0,1,4.38,0l36.5,31.3a3.37,3.37,0,0,1-2.19,5.92h-5v48"/><path class="cls-3" d="M46.29,130.53l-.7-72.16s0-5.77,7.61-7.25,51-12.9,51-12.9,7.6-2.69,7.74,5,0,81.52,0,81.52"/><rect class="cls-2" x="154.37" y="168.92" width="26.58" height="23.73" rx="2.83"/><line class="cls-5" x1="167.59" y1="168.92" x2="167.66" y2="192.65"/><line class="cls-5" x1="154.37" y1="180.79" x2="181.17" y2="180.79"/><path class="cls-2" d="M183.9,105.81,169.83,99a1.59,1.59,0,0,0-2.28,1.43v13.67a1.59,1.59,0,0,0,2.28,1.43l14.07-6.84A1.58,1.58,0,0,0,183.9,105.81Z"/><path class="cls-3" d="M167.55,111v12.84"/><line class="cls-3" x1="64.54" y1="72.95" x2="64.54" y2="110.31"/><line class="cls-3" x1="81.02" y1="61.12" x2="81.02" y2="98.48"/><line class="cls-6" x1="45.6" y1="212.19" x2="112.05" y2="212.19"/><line class="cls-6" x1="52.09" y1="171.6" x2="52.09" y2="210.97"/><line class="cls-6" x1="105.57" y1="171.6" x2="105.57" y2="210.97"/><rect class="cls-7" x="46.69" y="152.26" width="64.28" height="19.21" rx="2.83"/><line class="cls-7" x1="94.57" y1="152.26" x2="94.57" y2="171.02"/><line class="cls-7" x1="78.83" y1="152.26" x2="78.83" y2="171.02"/><line class="cls-7" x1="63.09" y1="152.48" x2="63.09" y2="171.24"/><path class="cls-7" d="M64.07,212V193.23a8.13,8.13,0,0,1,8.33-7.86h0a8.13,8.13,0,0,1,8.33,7.86V212"/></g></g></svg>